<svg width="80" height="80" viewBox="0 0 80 80" fill="none" xmlns="http://www.w3.org/2000/svg">
  <!-- Isotipo PETCIMAGENES - Según Manual de Marca (para favicon) -->
  <g id="isotipo" transform="translate(40, 40)">
    <!-- Anillo exterior - Líneas radiales largas (360 grados) -->
    <!-- VERDE: círculo completo (versión monocromática según manual) -->
    <rect x="-2.5" y="-36" width="5" height="14" rx="2.5" fill="#9DD43B" transform="rotate(0)"/>
    <rect x="-2.5" y="-36" width="5" height="14" rx="2.5" fill="#9DD43B" transform="rotate(-15)"/>
    <rect x="-2.5" y="-36" width="5" height="14" rx="2.5" fill="#9DD43B" transform="rotate(-30)"/>
    <rect x="-2.5" y="-36" width="5" height="14" rx="2.5" fill="#9DD43B" transform="rotate(-45)"/>
    <rect x="-2.5" y="-36" width="5" height="14" rx="2.5" fill="#9DD43B" transform="rotate(-60)"/>
    <rect x="-2.5" y="-36" width="5" height="14" rx="2.5" fill="#9DD43B" transform="rotate(-75)"/>
    <rect x="-2.5" y="-36" width="5" height="14" rx="2.5" fill="#9DD43B" transform="rotate(-90)"/>
    <rect x="-2.5" y="-36" width="5" height="14" rx="2.5" fill="#9DD43B" transform="rotate(-105)"/>
    <rect x="-2.5" y="-36" width="5" height="14" rx="2.5" fill="#9DD43B" transform="rotate(-120)"/>
    <rect x="-2.5" y="-36" width="5" height="14" rx="2.5" fill="#9DD43B" transform="rotate(-135)"/>
    <rect x="-2.5" y="-36" width="5" height="14" rx="2.5" fill="#9DD43B" transform="rotate(-150)"/>
    <rect x="-2.5" y="-36" width="5" height="14" rx="2.5" fill="#9DD43B" transform="rotate(-165)"/>

    <!-- VERDE: mitad inferior-derecha -->
    <rect x="-2.5" y="-36" width="5" height="14" rx="2.5" fill="#9DD43B" transform="rotate(180)"/>
    <rect x="-2.5" y="-36" width="5" height="14" rx="2.5" fill="#9DD43B" transform="rotate(165)"/>
    <rect x="-2.5" y="-36" width="5" height="14" rx="2.5" fill="#9DD43B" transform="rotate(150)"/>
    <rect x="-2.5" y="-36" width="5" height="14" rx="2.5" fill="#9DD43B" transform="rotate(135)"/>
    <rect x="-2.5" y="-36" width="5" height="14" rx="2.5" fill="#9DD43B" transform="rotate(120)"/>
    <rect x="-2.5" y="-36" width="5" height="14" rx="2.5" fill="#9DD43B" transform="rotate(105)"/>
    <rect x="-2.5" y="-36" width="5" height="14" rx="2.5" fill="#9DD43B" transform="rotate(90)"/>
    <rect x="-2.5" y="-36" width="5" height="14" rx="2.5" fill="#9DD43B" transform="rotate(75)"/>
    <rect x="-2.5" y="-36" width="5" height="14" rx="2.5" fill="#9DD43B" transform="rotate(60)"/>
    <rect x="-2.5" y="-36" width="5" height="14" rx="2.5" fill="#9DD43B" transform="rotate(45)"/>
    <rect x="-2.5" y="-36" width="5" height="14" rx="2.5" fill="#9DD43B" transform="rotate(30)"/>
    <rect x="-2.5" y="-36" width="5" height="14" rx="2.5" fill="#9DD43B" transform="rotate(15)"/>

    <!-- Anillo interior - Líneas radiales cortas (360 grados) -->
    <!-- VERDE interior (versión monocromática según manual) -->
    <rect x="-2" y="-25" width="4" height="7" rx="2" fill="#9DD43B" transform="rotate(0)"/>
    <rect x="-2" y="-25" width="4" height="7" rx="2" fill="#9DD43B" transform="rotate(-20)"/>
    <rect x="-2" y="-25" width="4" height="7" rx="2" fill="#9DD43B" transform="rotate(-40)"/>
    <rect x="-2" y="-25" width="4" height="7" rx="2" fill="#9DD43B" transform="rotate(-60)"/>
    <rect x="-2" y="-25" width="4" height="7" rx="2" fill="#9DD43B" transform="rotate(-80)"/>
    <rect x="-2" y="-25" width="4" height="7" rx="2" fill="#9DD43B" transform="rotate(-100)"/>
    <rect x="-2" y="-25" width="4" height="7" rx="2" fill="#9DD43B" transform="rotate(-120)"/>
    <rect x="-2" y="-25" width="4" height="7" rx="2" fill="#9DD43B" transform="rotate(-140)"/>
    <rect x="-2" y="-25" width="4" height="7" rx="2" fill="#9DD43B" transform="rotate(-160)"/>

    <!-- VERDE interior -->
    <rect x="-2" y="-25" width="4" height="7" rx="2" fill="#9DD43B" transform="rotate(180)"/>
    <rect x="-2" y="-25" width="4" height="7" rx="2" fill="#9DD43B" transform="rotate(160)"/>
    <rect x="-2" y="-25" width="4" height="7" rx="2" fill="#9DD43B" transform="rotate(140)"/>
    <rect x="-2" y="-25" width="4" height="7" rx="2" fill="#9DD43B" transform="rotate(120)"/>
    <rect x="-2" y="-25" width="4" height="7" rx="2" fill="#9DD43B" transform="rotate(100)"/>
    <rect x="-2" y="-25" width="4" height="7" rx="2" fill="#9DD43B" transform="rotate(80)"/>
    <rect x="-2" y="-25" width="4" height="7" rx="2" fill="#9DD43B" transform="rotate(60)"/>
    <rect x="-2" y="-25" width="4" height="7" rx="2" fill="#9DD43B" transform="rotate(40)"/>
    <rect x="-2" y="-25" width="4" height="7" rx="2" fill="#9DD43B" transform="rotate(20)"/>
  </g>
</svg>
